<?xml version="1.0" encoding="UTF-8"?>
<svg id="Layer_1" xmlns="http://www.w3.org/2000/svg" version="1.1" viewBox="0 0 1416 1080">
  <!-- Generator: Adobe Illustrator 30.1.0, SVG Export Plug-In . SVG Version: 2.1.1 Build 136)  -->
  <path d="M868.48,856.42c33.98-33.53,64.29-67.38,88.4-107.07l34.97-57.54,27.65-48.82c26.45-13.16,52.29-27.9,79.17-46.09l162.68,247.6,145.78,221.5H14.09l70.35-106.97,127.3-193.66,117.72-179c20.52,8.28,39.22,12.55,61.65,16-27.75,20.54-41.66,49.63-43.78,82.93-.67,36.72,12.73,71.65,37.68,98.37,65.37,69.96,177.05,76.14,264.68,53.41,42.66-9.03,81.57-23.48,121.04-42.07,34.54-16.16,65.18-34.79,98.2-55.2l-.47,116.62h.02Z"/>
  <path d="M437.81,716.45c22.2,54.29,97.66,64.62,148.08,59.65,99.28-9.82,198.95-62.72,277.11-122.01-32.1,6.1-60.26,11.57-91.49,14.48-91.72,8.58-184.72-21.45-252-85.62,117.25,63.46,236.4,76.22,360.08,29.69,51.81-18.12,98.71-45.48,141.06-81.31-49.77-28.32-94.52-49.61-153.45-61.3,3.9,29.38,2.52,56.26-12.04,80.35-17.36,28.69-46.54,48.96-76.51,54.06-36.54,6.22-71.26-4.33-96.62-28.55-27.1-25.86-38.39-59.45-32.55-96.68-33.95,9.72-64.01,22.51-95.82,35.89-69.84,29.4-160.05,56.83-231.87,13.7,109,5.55,192.46-54.67,288.29-93.69,102.15-41.6,206.23-43.92,311.26-10.49,39.73,12.65,76.04,28.87,114.21,45.26,37.68,16.18,75.96,24.64,118.52,22.39-39.51,51.66-108.67,87.02-162.66,122.26-26.57,31.74-44.3,71.35-65.77,106.5-6.3,10.29-9.66,19.72-18.1,29.46l13.78-91.49c-36.25,24.13-68.25,47.07-104.57,68.23-99.14,57.76-240.67,112.15-352.5,64.49-41.17-17.53-75.57-53.29-75.11-100.66.3-31.13,19.27-58.23,48.53-67.83,25.03-8.21,51.62-4.13,71.53,12.75,22.85,19.36,27.69,53.7,7.69,76.25s-53.68,22.83-78.99,4.21h-.08Z"/>
  <path d="M549.61,405.86c-45.28,23.14-88.28,44.22-138.75,57.7l203.1-308.74L710.2,8l248.8,377.18c-90.29-39.4-183.8-49.02-277.53-29.16-46.28,10.71-88.46,27.73-131.87,49.81v.04Z"/>
  <path d="M619.66,566.32c-16.81-1.3-31.33-6.32-48.41-13.07l37.04-19.84,11.37,32.9Z"/>
  <path d="M928.5,543.61l-29.18,11.49,9.6-35.05,37.29,18.44c-6.99,1.85-12.52,3.05-17.69,5.1l-.02.02Z"/>
</svg>