<?xml version="1.0" encoding="UTF-8"?>
<svg id="Layer_1" xmlns="http://www.w3.org/2000/svg" version="1.1" viewBox="0 0 1236.55 1080">
  <!-- Generator: Adobe Illustrator 30.1.0, SVG Export Plug-In . SVG Version: 2.1.1 Build 136)  -->
  <g>
    <path d="M730.33,610.72c18.8-20.12,38.07-40.85,54.73-64.86,19.67-28.35,36.1-57.42,53.19-87.32,21.24-11.18,41.21-22.34,62.18-37.02l234.62,338.19-1028.71-.02,139.96-201.91,95.86-137.34c14.21,5.28,27.54,8.39,42.63,11.19-29.18,22.89-37.59,59.19-25.53,92.65,8.91,24.72,26.56,43.44,49.56,57.16,60.07,35.84,136.04,25.85,200.29,5.24,43.38-13.92,81.56-34.46,121.56-59.68l-.34,83.73Z"/>
    <path d="M418.41,512.36c18.38,38.35,72.72,44.2,109.46,40.21,72.26-7.85,138.82-42.34,195.66-85.02-33.13,6.31-63.86,12.67-96.68,11.03-56.17-2.79-110.1-23.03-150.94-63.01,76.19,43.14,163.46,54.09,245.71,26.71,41.95-13.97,80.5-32.56,115.06-62.48-35.18-19.53-68.67-34.45-108.18-43.04,7.33,35.72-7.93,69.2-39.6,86.42-30.61,17.18-69.43,12.32-94.9-11.82-18.95-17.97-27.05-41.52-22.87-67.9-57.98,19.16-97.83,44.76-159,51.87-26.66,1.74-53.01-1.73-77.12-15.52,34.81,1.03,68-4.76,99.63-18.94l84.09-37.71c22.22-9.96,43.35-19.16,67.07-25.47,52.51-13.96,106.12-13.42,159.07-.19,35.48,8.87,67.82,22.89,101.27,37.39,27.48,11.91,55.24,18.21,85.58,16.37-23.82,32.19-71.04,61.88-104.5,81.12-5.23,3.01-11.86,6.54-14.94,11.77l-54.7,92.99,8.64-65.95-38.51,25.81c-35.49,23.79-71.74,43.36-111.83,58.89-63.05,24.41-165.29,39.44-215.37-16.54-11.64-13.01-17.79-29.28-17.08-46.85,1.36-33.55,31.62-55.66,64.11-48.92,17.34,3.6,31.35,15.99,34.91,33.79,4.55,22.77-11.97,42.67-35.02,43.64-10.47.44-18.49-3.36-29.01-8.65Z"/>
    <path d="M595.67,257.09c-73.5,16.48-119.81,56.63-192.95,76.71l85.55-123.38L620.4,19.84l120.69,174.03,56.83,83.62c-65.6-28.47-133.21-35.89-202.25-20.41Z"/>
    <path d="M550.96,405.1c-6.96-.09-11.3-.62-16.68-2.53l-18.66-6.65,26.1-13.79,9.24,22.97Z"/>
    <path d="M784.16,384.7c-7.18,2.43-12.45,4.19-18.39,6.62l-14.86,6.09,6.99-25.81,26.26,13.09Z"/>
  </g>
  <g>
    <path d="M124.43,858.64c0-8.14-.71-11.04-3.06-13.94-3.76-4.52-10.57-5.97-29.38-5.97-32.43,0-38.54,2.9-38.54,18.82,0,9.59,3.06,14.3,10.81,16.29,4.46,1.27,6.58,1.45,31.02,2.35,27.73,1.09,36.43,2.35,43.95,6.52,8.69,5.07,11.98,12.49,11.98,26.97,0,17.56-4,26.06-14.33,31.13-9.17,4.34-20.45,5.61-50.53,5.61-24.67,0-33.37-1.09-43-5.43-5.88-2.72-11.04-8.51-12.69-14.66-1.41-5.43-1.65-8.87-1.88-18.82h23.5c0,10.86.7,13.57,3.52,17.38,4,5.43,8.23,6.15,34.54,6.15,33.14,0,37.13-2.35,37.13-21.54,0-9.05-2.59-13.21-9.17-15.2q-4.23-1.27-31.49-2.53c-28.44-1.09-31.73-1.63-39.72-4.52-12.46-4.71-17.62-13.21-17.62-29.14,0-13.94,3.76-22.81,11.99-27.51,9.4-5.43,21.15-7.06,49.11-7.06,31.02,0,43.24,2.53,50.76,10.68,4.46,5.07,6.58,11.58,6.58,20.81v3.62h-23.5Z"/>
    <path d="M218.9,876.19h76.38v14.3h-76.38v39.28h80.37v15.57h-104.34v-120.72h103.87v15.57h-79.9v36.02Z"/>
    <path d="M483.98,945.33h-40.19l-54.99-73.85c-2.82-3.98-5.64-8.33-15.75-23.35l-4.94-7.6h-.94l.23,6.15.23,6.33c.24.36.24,6.7.24,12.67v79.64h-23.74v-120.72h39.95l48.65,66.43c5.41,7.42,8.23,11.4,20.45,28.96l6.58,9.59h.71v-6.15l-.24-6.15c-.24-.9-.24-6.88-.24-12.49v-80.18h23.97v120.72Z"/>
    <path d="M595.36,945.33h-23.97v-104.07h-47.94v-16.65h120.56v16.83l-48.65-.18v104.07Z"/>
    <path d="M707.45,945.33h-23.97v-120.72h23.97v120.72Z"/>
    <path d="M782.65,876.19h76.38v14.3h-76.38v39.28h80.37v15.57h-104.34v-120.72h103.87v15.57h-79.9v36.02Z"/>
    <path d="M1047.73,945.33h-40.18l-54.99-73.85c-2.82-3.98-5.64-8.33-15.75-23.35l-4.94-7.6h-.94l.23,6.15.24,6.33c.24.36.24,6.7.24,12.67v79.64h-23.74v-120.72h39.95l48.65,66.43c5.4,7.42,8.22,11.4,20.44,28.96l6.58,9.59h.71v-6.15l-.23-6.15c-.24-.9-.24-6.88-.24-12.49v-80.18h23.97v120.72Z"/>
    <path d="M1159.12,945.33h-23.97v-104.07h-47.94v-16.65h120.55v16.83l-48.64-.18v104.07Z"/>
  </g>
  <g>
    <path d="M41.17,1035.78h-7.04v-37.39h7.04v37.39Z"/>
    <path d="M104.31,1035.78h-11.8l-16.15-22.87c-.83-1.23-1.66-2.58-4.62-7.23l-1.45-2.35h-.28l.07,1.91.07,1.96c.07.11.07,2.07.07,3.92v24.67h-6.97v-37.39h11.73l14.28,20.58c1.59,2.3,2.42,3.53,6,8.97l1.93,2.97h.21v-1.91l-.07-1.91c-.07-.28-.07-2.13-.07-3.87v-24.84h7.04v37.39Z"/>
    <path d="M126.39,998.39h21.94c6.49,0,10.35.95,12.97,3.25,3.17,2.75,4.21,6,4.21,13.01,0,9.75-.41,12.84-2.14,15.47-1.73,2.8-4.28,4.37-8.21,5.1-1.93.34-4.28.56-6,.56h-22.77v-37.39ZM147.09,1030.85c4.62,0,7.59-.73,9.04-2.3,1.79-1.91,2.28-4.32,2.28-11.16,0-7.68-.41-9.81-2.14-11.72-1.45-1.63-3.86-2.3-8.42-2.3h-14.42v27.47h13.66Z"/>
    <path d="M192.76,1014.37h22.42v4.43h-22.42v12.17h23.6v4.82h-30.64v-37.39h30.5v4.82h-23.46v11.16Z"/>
    <path d="M260.86,1016.44l15.25,19.34h-8.21l-9.04-11.66c-.69-.84-1.1-1.4-2.76-3.76l-.83-1.23h-.14l-.9,1.29c-1.73,2.35-2.21,2.97-2.83,3.76l-9.18,11.61h-8.49l15.73-19.34-14.56-18.05h8.42l8.62,10.99c.48.67.9,1.23,2.35,3.31l.76,1.06h.14l.76-1.06c1.38-1.96,1.79-2.52,2.35-3.25l8.56-11.04h8.28l-14.28,18.05Z"/>
    <path d="M331.66,1030.62h22.56v5.16h-29.6v-37.39h7.04v32.24Z"/>
    <path d="M381.41,1028.27l-3.17,7.51h-7.45l16.08-37.39h10.28l16.28,37.39h-7.31l-3.24-7.51h-21.46ZM392.1,1002.87l-8.9,21.02h17.94l-9.04-21.02Z"/>
    <path d="M431.91,998.39h21.53c5.38,0,7.52.28,9.38,1.18,3.04,1.4,4.35,4.04,4.35,8.69,0,4.99-1.59,6.95-6.35,8.07v.11c5.8.95,7.59,3.08,7.59,8.91,0,7.68-3.52,10.43-13.32,10.43h-23.18v-37.39ZM451.03,1014.48c4.07,0,5.45-.17,6.76-.79,1.73-.78,2.35-2.13,2.35-5.1s-.69-4.2-2.35-4.88c-.97-.39-2.14-.5-5.11-.5h-13.73v11.27h12.08ZM449.23,1030.96c7.8-.06,8-.11,9.59-.67,1.86-.73,2.55-2.07,2.55-5.1,0-3.42-.69-4.88-2.62-5.66-1.38-.5-2.07-.56-7.59-.56h-12.21v12h10.28Z"/>
    <path d="M515.2,1008.93c0-2.52-.21-3.42-.9-4.32-1.1-1.4-3.11-1.85-8.63-1.85-9.52,0-11.32.9-11.32,5.83,0,2.97.9,4.43,3.17,5.05,1.31.39,1.93.45,9.11.73,8.14.34,10.69.73,12.9,2.02,2.55,1.57,3.52,3.87,3.52,8.35,0,5.44-1.17,8.07-4.21,9.64-2.69,1.34-6,1.74-14.83,1.74-7.25,0-9.8-.34-12.63-1.68-1.73-.84-3.24-2.64-3.73-4.54-.41-1.68-.48-2.75-.55-5.83h6.9c0,3.36.21,4.2,1.03,5.38,1.17,1.68,2.42,1.91,10.14,1.91,9.73,0,10.9-.73,10.9-6.67,0-2.8-.76-4.09-2.69-4.71q-1.24-.39-9.25-.78c-8.35-.34-9.32-.5-11.66-1.4-3.66-1.46-5.18-4.09-5.18-9.03,0-4.32,1.1-7.06,3.52-8.52,2.76-1.68,6.21-2.19,14.42-2.19,9.11,0,12.7.79,14.9,3.31,1.31,1.57,1.93,3.59,1.93,6.45v1.12h-6.9Z"/>
    <path d="M610.83,1018.52v1.12c0,3.98-.14,5.61-.69,7.68l7.31,4.99-3.45,3.53-6.21-4.21c-1.04,1.57-2.07,2.47-3.66,3.08-2.69,1.12-5.04,1.4-11.73,1.4-8.9,0-12.49-.5-15.18-2.24-2.55-1.63-3.79-4.77-3.79-9.7,0-4.43,1.1-6.9,3.66-8.35,1.1-.62,1.93-.84,5.45-1.34-3.38-2.35-4-3.36-4-6.62,0-7.06,3.24-9.14,14.28-9.14s13.87,2.19,13.87,9.25c0,.34,0,1.29-.07,2.13h-6.42v-1.23c-.07-4.99-.83-5.61-7.38-5.61-6.21,0-7.59.79-7.59,4.21,0,2.52.41,3.2,3.66,5.33l15.66,10.76v-5.05h6.28ZM586.47,1017.23c-5.31.84-6.28,1.91-6.28,6.78,0,3.08.48,4.99,1.59,6.11,1.17,1.12,3.1,1.4,9.73,1.4,8.14,0,9.66-.39,11.45-3.14l-16.49-11.16Z"/>
    <path d="M683.69,1035.78h-7.04v-32.24h-14.08v-5.16h35.4v5.21l-14.28-.06v32.24Z"/>
    <path d="M723.64,1014.37h22.42v4.43h-22.42v12.17h23.6v4.82h-30.64v-37.39h30.5v4.82h-23.46v11.16Z"/>
    <path d="M803.61,1022.89v1.29c0,5.27-.62,7.29-2.69,9.08-1.31,1.18-3.79,2.13-6.42,2.47-1.66.28-5.38.39-10,.39-6.9,0-9.59-.34-12.35-1.51-3.86-1.63-5.66-4.37-6.14-9.47-.28-2.24-.41-6.62-.41-10.31,0-8.75.69-11.16,3.86-13.57,3.31-2.58,6.69-3.2,17.94-3.2,6.35,0,8.56.28,10.97,1.46,2.55,1.18,4.14,3.59,4.49,6.62.14,1.18.21,1.85.28,4.2h-7.04c-.14-6.67-1.04-7.34-9.38-7.34-12.35,0-13.73.9-13.73,8.75,0,11.83.21,14.41,1.17,16.37,1.24,2.47,3.31,3.08,10.49,3.08,10.56,0,12.01-.78,12.01-6.5,0-.5,0-.95-.07-1.79h7.04Z"/>
    <path d="M861.23,1035.78h-7.04v-16.65h-24.08v16.65h-7.04v-37.39h7.04v15.87h24.08v-15.87h7.04v37.39Z"/>
    <path d="M924.36,1035.78h-11.8l-16.15-22.87c-.83-1.23-1.66-2.58-4.62-7.23l-1.45-2.35h-.28l.07,1.91.07,1.96c.07.11.07,2.07.07,3.92v24.67h-6.97v-37.39h11.73l14.28,20.58c1.59,2.3,2.42,3.53,6,8.97l1.93,2.97h.21v-1.91l-.07-1.91c-.07-.28-.07-2.13-.07-3.87v-24.84h7.04v37.39Z"/>
    <path d="M977.49,999.29c4,1.4,6.21,4.15,7.04,8.69.35,1.68.41,3.42.41,8.41,0,7.51-.14,9.03-.83,11.77-.9,3.25-3.1,5.49-6.49,6.67-2.97,1.01-5.8,1.29-12.42,1.29-7.59,0-10.21-.28-13.25-1.35-3.31-1.18-5.38-3.36-6.28-6.56-.76-2.63-.9-4.09-.9-11.1,0-9.03.41-11.44,2.48-14.24,1.66-2.24,4.49-3.76,8.35-4.37,1.66-.28,5.45-.45,9.52-.45,6.76,0,9.66.28,12.35,1.23ZM977.84,1017v-5.21c0-4.09-1.1-6.78-3.17-7.79-1.72-.84-3.66-1.01-10.56-1.01-8.07,0-10.07.62-11.38,3.64-.76,1.85-.83,2.52-.83,10.48q0,6.95.34,8.86c.48,2.41,1.59,3.87,3.59,4.49,1.73.56,3.59.73,9.11.73,6.28,0,8.35-.22,9.94-1.18,1.86-1.06,2.97-3.92,2.97-7.79v-5.21Z"/>
    <path d="M1012.61,1030.62h22.56v5.16h-29.6v-37.39h7.04v32.24Z"/>
    <path d="M1084.92,999.29c4,1.4,6.21,4.15,7.04,8.69.35,1.68.41,3.42.41,8.41,0,7.51-.14,9.03-.83,11.77-.9,3.25-3.1,5.49-6.49,6.67-2.97,1.01-5.8,1.29-12.42,1.29-7.59,0-10.21-.28-13.25-1.35-3.31-1.18-5.38-3.36-6.28-6.56-.76-2.63-.9-4.09-.9-11.1,0-9.03.41-11.44,2.48-14.24,1.66-2.24,4.49-3.76,8.35-4.37,1.66-.28,5.45-.45,9.52-.45,6.76,0,9.66.28,12.35,1.23ZM1085.27,1017v-5.21c0-4.09-1.1-6.78-3.17-7.79-1.72-.84-3.66-1.01-10.56-1.01-8.07,0-10.07.62-11.38,3.64-.76,1.85-.83,2.52-.83,10.48q0,6.95.34,8.86c.48,2.41,1.59,3.87,3.59,4.49,1.73.56,3.59.73,9.11.73,6.28,0,8.35-.22,9.94-1.18,1.86-1.06,2.97-3.92,2.97-7.79v-5.21Z"/>
    <path d="M1150.68,1016.55c.14,1.79.14,2.3.14,4.54,0,6.78-.28,8.58-1.72,10.65-1.24,1.79-3.17,3.03-5.93,3.64-2,.5-5.87.73-12.01.73-6.49,0-9.18-.28-11.94-1.18-3.59-1.18-5.52-2.97-6.69-6.22-.69-1.79-.9-3.81-.9-8.07,0-10.48.07-11.44.83-14.35,1.1-4.09,3.86-6.56,8.42-7.57,2.07-.5,4.9-.67,10.7-.67,9.87,0,11.87.22,15.04,1.79,1.72.9,3.11,2.58,3.59,4.43.34,1.46.48,2.52.48,5.16h-7.04c-.21-6.05-1.1-6.5-12.7-6.5-7.25,0-9.8.62-11.04,2.8-.97,1.74-1.17,3.81-1.17,11.21,0,7.96.21,9.81,1.17,11.49,1.24,2.19,3.93,2.8,12.21,2.8,5.52,0,8-.28,9.52-1.18,1.45-.78,2.14-3.2,2.14-7.23,0-.28,0-1.01-.07-1.79h-13.04v-4.48h20.01Z"/>
    <path d="M1190.07,1020.87v14.91h-7.04v-14.91l-16.77-22.48h8.14l8.35,11.21c.83,1.06,1.17,1.57,2.9,4.09l.9,1.35h.21c1.66-2.41,2.97-4.2,3.86-5.44l8.35-11.21h8.28l-17.18,22.48Z"/>
  </g>
</svg>