<?xml version="1.0" encoding="UTF-8"?>
<svg id="Layer_2" xmlns="http://www.w3.org/2000/svg" version="1.1" viewBox="0 0 722 554">
  <!-- Generator: Adobe Illustrator 30.1.0, SVG Export Plug-In . SVG Version: 2.1.1 Build 136)  -->
  <path d="M442.55,437.03c17.27-17.04,32.67-34.24,44.92-54.41l17.77-29.24,14.05-24.81c13.44-6.69,26.57-14.18,40.23-23.42l82.67,125.82,74.08,112.56H8.38s35.75-54.36,35.75-54.36l64.69-98.41,59.82-90.96c10.43,4.21,19.93,6.38,31.33,8.13-14.1,10.44-21.17,25.22-22.25,42.14-.34,18.66,6.47,36.41,19.15,49.99,33.22,35.55,89.97,38.69,134.5,27.14,21.68-4.59,41.45-11.93,61.51-21.38,17.55-8.21,33.12-17.68,49.9-28.05l-.24,59.26Z"/>
  <path d="M223.7,365.9c11.28,27.59,49.63,32.84,75.25,30.31,50.45-4.99,101.1-31.87,140.82-62-16.31,3.1-30.62,5.88-46.49,7.36-46.61,4.36-93.87-10.9-128.06-43.51,59.58,32.25,120.13,38.73,182.98,15.09,26.33-9.21,50.16-23.11,71.68-41.32-25.29-14.39-48.03-25.21-77.98-31.15,1.98,14.93,1.28,28.59-6.12,40.83-8.82,14.58-23.65,24.88-38.88,27.47-18.57,3.16-36.21-2.2-49.1-14.51-13.77-13.14-19.51-30.21-16.54-49.13-17.25,4.94-32.53,11.44-48.69,18.24-35.49,14.94-81.33,28.88-117.83,6.96,55.39,2.82,97.8-27.78,146.5-47.61,51.91-21.14,104.8-22.32,158.17-5.33,20.19,6.43,38.64,14.67,58.04,23,19.15,8.22,38.6,12.52,60.23,11.38-20.08,26.25-55.22,44.22-82.66,62.13-13.5,16.13-22.51,36.26-33.42,54.12-3.2,5.23-4.91,10.02-9.2,14.97l7-46.49c-18.42,12.26-34.68,23.92-53.14,34.67-50.38,29.35-122.3,56.99-179.13,32.77-20.92-8.91-38.4-27.08-38.17-51.15.15-15.82,9.79-29.59,24.66-34.47,12.72-4.17,26.23-2.1,36.35,6.48,11.61,9.84,14.07,27.29,3.91,38.75s-27.28,11.6-40.14,2.14Z"/>
  <path d="M280.51,208.07c-23.01,11.76-44.86,22.47-70.51,29.32l103.21-156.89L362.12,5.89l126.43,191.67c-45.88-20.02-93.4-24.91-141.03-14.82-23.52,5.44-44.95,14.09-67.01,25.31Z"/>
  <path d="M316.11,289.61c-8.54-.66-15.92-3.21-24.6-6.64l18.82-10.08,5.78,16.72Z"/>
  <path d="M473.05,278.07l-14.83,5.84,4.88-17.81,18.95,9.37c-3.55.94-6.36,1.55-8.99,2.59Z"/>
</svg>